<?xml version="1.0" encoding="UTF-8"?>
<svg width="80px" height="64px" viewBox="0 0 80 64" version="1.1" xmlns="http://www.w3.org/2000/svg" xmlns:xlink="http://www.w3.org/1999/xlink">
    <title>C5EDD3A2-FA47-4F94-B6BD-81948AEE0205</title>
    <defs>
        <polygon id="path-1" points="0 0.0884491983 4.23239563 0.0884491983 4.23239563 5.47135228 0 5.47135228"></polygon>
        <polygon id="path-3" points="0.0847705323 0.0884491983 4.3169173 0.0884491983 4.3169173 5.47135228 0.0847705323 5.47135228"></polygon>
    </defs>
    <g id="Dashboard-(mobile)-options" stroke="none" stroke-width="1" fill="none" fill-rule="evenodd">
        <g id="M&amp;S-Copy" transform="translate(-34.000000, -657.000000)">
            <g id="Group-5" transform="translate(0.000000, 588.000000)">
                <g id="Group-2" transform="translate(16.000000, 60.000000)">
                    <g id="Card_NEW" transform="translate(69.875000, 41.467033) rotate(-360.000000) translate(-69.875000, -41.467033) translate(16.000000, 9.571429)">
                        <g id="Atom/Logo/M&amp;S" transform="translate(2.250000, 0.247253)">
                            <g id="Sparls-logo" transform="translate(0.000000, 0.000000)">
                                <g id="Group-3" transform="translate(0.000000, 9.579702)">
                                    <mask id="mask-2" fill="white">
                                        <use xlink:href="#path-1"></use>
                                    </mask>
                                    <g id="Clip-2"></g>
                                    <path d="M4.23239563,3.89312178 C4.23239563,4.77148514 3.44747072,5.47135228 2.21629582,5.47135228 C1.10819316,5.47135228 0.392496388,5.06927067 -2.26235741e-05,4.32486156 L0.823475475,3.87068663 C1.10819316,4.39194812 1.59290323,4.63764034 2.27025304,4.63764034 C2.89341939,4.63764034 3.25528346,4.34718726 3.25528346,3.92288939 C3.25528346,3.52069834 2.8472673,3.37941164 2.17014373,3.20069654 C0.99269981,2.91024347 0.261732129,2.5008294 0.261732129,1.5626025 C0.261732129,0.498082147 1.23137852,0.0884491983 2.15464658,0.0884491983 C2.86265133,0.0884491983 3.80922167,0.319367051 4.12470741,1.19773041 L3.24736521,1.57004441 C3.10121692,1.17562358 2.69354011,0.91471924 2.13168365,0.91471924 C1.5699403,0.91471924 1.2388443,1.16818168 1.2388443,1.5551606 C1.2388443,1.96479355 1.63916844,2.07653153 2.47024544,2.30712106 C3.51681198,2.59002279 4.23239563,2.96233679 4.23239563,3.89312178" id="Fill-1" fill="#FFFFFF" mask="url(#mask-2)"></path>
                                </g>
                                <path d="M7.16661663,12.2963465 C7.86692937,12.2963465 8.28252443,11.9835677 8.28252443,11.4252061 C8.28252443,10.8445189 7.8823134,10.5615077 7.15892462,10.5615077 L6.12016321,10.5615077 L6.12016321,12.2963465 L7.16661663,12.2963465 Z M7.22057386,9.73523766 C8.55185808,9.73523766 9.32909097,10.308483 9.32909097,11.4179831 C9.32909097,12.5271549 8.46713279,13.1228354 7.25903394,13.1228354 L6.12016321,13.1228354 L6.12016321,14.9467581 L5.11974876,14.9467581 L5.11974876,9.73523766 L7.22057386,9.73523766 Z" id="Fill-4" fill="#FFFFFF"></path>
                                <path d="M17.7631368,12.1846632 C18.3787242,12.1846632 18.7482803,11.8644425 18.7482803,11.3284067 C18.7482803,10.8519061 18.3633402,10.5615624 17.7169847,10.5615624 L16.593498,10.5615624 L16.593498,12.1846632 L17.7631368,12.1846632 Z M16.593498,13.0111521 L16.593498,14.9468128 L15.5929704,14.9468128 L15.5929704,9.73529238 L17.7399476,9.73529238 C19.0328849,9.73529238 19.7947337,10.3234215 19.7947337,11.3284067 C19.7947337,12.1474537 19.2558402,12.6983734 18.5558668,12.914298 L20.1564847,14.9468128 L18.9943117,14.9468128 L17.485998,13.0111521 L16.593498,13.0111521 Z" id="Fill-6" fill="#FFFFFF"></path>
                                <polygon id="Fill-8" fill="#FFFFFF" points="21.7608694 13.2195254 21.7608694 14.9467034 20.7603418 14.9467034 20.7603418 9.73518294 21.7608694 9.73518294 21.7608694 12.0804766 23.9463067 9.73518294 25.1928656 9.73518294 22.9997363 11.9614061 25.423626 14.9467034 24.1770671 14.9467034 22.3145814 12.6611638"></polygon>
                                <g id="Group-12" transform="translate(25.338403, 9.579702)">
                                    <mask id="mask-4" fill="white">
                                        <use xlink:href="#path-3"></use>
                                    </mask>
                                    <g id="Clip-11"></g>
                                    <path d="M4.31696255,3.89312178 C4.31696255,4.77148514 3.53203764,5.47135228 2.30086274,5.47135228 C1.19287319,5.47135228 0.47695019,5.06927067 0.0847705323,4.32486156 L0.908268631,3.87068663 C1.19287319,4.39194812 1.67758327,4.63764034 2.35481996,4.63764034 C2.97798631,4.63764034 3.33985038,4.34718726 3.33985038,3.92288939 C3.33985038,3.52069834 2.93206046,3.37941164 2.25493688,3.20069654 C1.07726673,2.91024347 0.346525285,2.5008294 0.346525285,1.5626025 C0.346525285,0.498082147 1.31594544,0.0884491983 2.23932662,0.0884491983 C2.94744449,0.0884491983 3.89378859,0.319367051 4.20927433,1.19773041 L3.33193213,1.57004441 C3.18589696,1.17562358 2.77810703,0.91471924 2.21625057,0.91471924 C1.65450722,0.91471924 1.32341122,1.16818168 1.32341122,1.5551606 C1.32341122,1.96479355 1.72373536,2.07653153 2.55492548,2.30712106 C3.60160513,2.59002279 4.31696255,2.96233679 4.31696255,3.89312178" id="Fill-10" fill="#FFFFFF" mask="url(#mask-4)"></path>
                                </g>
                                <g id="Atom/logo/Spark" transform="translate(8.940303, 8.901093)" fill="#09C980">
                                    <path d="M5.33501382,5.55770578 L5.33603188,5.56109841 L5.33704994,5.56350608 C5.38580374,5.67557238 5.41566686,5.8279125 5.3551488,5.8609633 C5.32686933,5.88285125 5.26397579,5.88810436 5.20300526,5.88153797 C5.14079043,5.87540935 5.07586078,5.86030666 5.01183606,5.84213966 C4.75415355,5.76575073 4.50416306,5.64416317 4.26039405,5.51786971 C3.77330849,5.26024856 3.30613169,4.96410463 2.85083226,4.65329576 C2.70389214,4.55239232 2.55887503,4.44897177 2.41464975,4.34434737 C2.49948815,4.20262291 2.57855754,4.05805301 2.65061363,3.910966 C2.81791496,3.57673703 2.95478758,3.23112633 3.07107275,2.87916813 C3.38440925,2.90018056 3.69899005,2.90652806 4.01345773,2.8895649 C4.18234271,2.8815758 4.34975716,2.8650504 4.5158142,2.84239637 L5.33501382,5.55770578 Z M1.53233036,3.65991124 C1.32249671,3.48316606 1.11730089,3.30083945 0.92918587,3.10516119 C0.836089863,3.00732206 0.746274273,2.90510535 0.675349368,2.79632224 C0.641527125,2.74291565 0.609854121,2.68327099 0.606121232,2.63500807 C0.604424463,2.610603 0.609741003,2.59878351 0.621165908,2.58838674 C0.634174463,2.57777108 0.659739102,2.56890646 0.688810395,2.56540439 C0.809054692,2.55150554 0.94886838,2.58860562 1.08653283,2.60983693 L1.50020488,2.68064444 C1.77609937,2.72639025 2.05312503,2.76940007 2.33105564,2.80540574 C2.42618777,2.81777243 2.52165925,2.82871641 2.61724386,2.83911318 C2.53297104,3.1503598 2.43286173,3.45646276 2.31533226,3.75621821 C2.26386363,3.88787422 2.20617351,4.01734143 2.1453161,4.14560481 C1.93695298,3.9883399 1.7319834,3.82691628 1.53233036,3.65991124 L1.53233036,3.65991124 Z M3.52942636,1.07177081 C3.55646154,0.951824856 3.58338359,0.831222262 3.61969443,0.717186052 C3.63756705,0.662794501 3.6613218,0.600632729 3.68813074,0.572944474 C3.69197674,0.571302878 3.69322104,0.569989601 3.69389975,0.569114083 C3.69480469,0.569989601 3.69661458,0.571302878 3.70102617,0.573053914 C3.71550526,0.58334125 3.733491,0.605995276 3.7486488,0.629087061 C3.86877998,0.829580666 3.94603948,1.07198969 4.02872865,1.30203203 C4.1639045,1.69765669 4.28776857,2.09820614 4.4107277,2.49886503 C4.27080089,2.50488421 4.1309872,2.50597861 3.99139975,2.50083494 C3.72885317,2.49711399 3.46641971,2.476211 3.20353378,2.44348852 C3.33226192,1.9898608 3.43474671,1.52944781 3.52942636,1.07177081 L3.52942636,1.07177081 Z M7.19410602,1.89410102 L7.18969443,1.89563318 C6.48938169,2.12053185 5.78691971,2.32704464 5.08705944,2.43188791 C4.93774386,1.99325343 4.78854138,1.55516615 4.62124005,1.10908976 C4.57520108,0.989143808 4.52995393,0.867337377 4.47373435,0.74334215 C4.44579424,0.680633179 4.41683606,0.617377009 4.38301382,0.550071569 C4.34772104,0.481452851 4.31333321,0.413053013 4.24715925,0.317183801 C4.20745488,0.267060399 4.18143777,0.212887728 4.04965545,0.113516443 C4.02114975,0.092175694 3.96493017,0.059672091 3.90667446,0.0380030224 C3.8354102,0.0125035628 3.75407846,-0.00533511489 3.65464785,0.00145014903 C3.45816211,0.0150206769 3.32558796,0.119973388 3.27072579,0.176663174 C3.15715545,0.300001761 3.14550431,0.357895384 3.11722484,0.414694609 C3.09527998,0.467772884 3.08249766,0.510126063 3.07039405,0.551275406 C3.02729614,0.707664795 3.00693492,0.832426099 2.98408511,0.960032837 C2.9029796,1.45108895 2.82809557,1.91106418 2.7308142,2.37279045 C2.62086363,2.35407625 2.51091306,2.33415822 2.40062313,2.31270803 C2.13343872,2.26455454 1.86512313,2.20972523 1.59556325,2.15139385 L1.19048815,2.06187215 L0.975337962,2.01481306 C0.878961536,1.99872541 0.781793285,1.97815074 0.609062296,1.99401951 C0.523658304,2.00704284 0.396287581,2.01973784 0.230456783,2.14635962 C0.147880737,2.21278955 0.0739016498,2.31347411 0.0380432848,2.41612859 C0.00263739125,2.51363939 -0.00313162016,2.60885197 0.0012799768,2.67232702 C0.0112343494,2.80890781 0.0433598247,2.8843118 0.0691506992,2.94953788 C0.0962989882,3.01323181 0.123786631,3.06335521 0.150256213,3.10844438 C0.258057543,3.28146861 0.361447277,3.39889746 0.466081308,3.51654518 C0.674670661,3.74549311 0.886540433,3.94368848 1.10259557,4.13641187 C1.33855944,4.34380018 1.57746439,4.5435277 1.8212334,4.73625109 C1.50608701,5.23376415 1.10542351,5.68520308 0.604763817,6.05489052 L0.601370281,6.05740763 C0.587117429,6.06791385 0.582932068,6.08728468 0.591981498,6.10282513 C0.601822752,6.11967885 0.624220091,6.12547915 0.641527125,6.11573902 C1.19071439,5.8108399 1.65551572,5.38807418 2.03423435,4.90128621 C2.16963644,5.00426901 2.30616971,5.10561021 2.44575716,5.20344934 C2.91474386,5.53111192 3.39289309,5.84301518 3.91662884,6.12733963 C4.18471819,6.26807913 4.44545488,6.40520713 4.80335982,6.51672623 C4.89656895,6.54332008 4.99509462,6.57046114 5.13219347,6.58304671 C5.20176097,6.58862813 5.27969918,6.59256797 5.38410697,6.58009184 C5.4855737,6.56630243 5.62957275,6.53587818 5.78477047,6.42731396 C5.94211743,6.32170461 6.05670583,6.12876235 6.08668207,5.99053995 C6.12220108,5.84892493 6.11552713,5.74430054 6.10659081,5.66331513 C6.08702142,5.51852635 6.05297294,5.4225477 6.0191507,5.33630918 L5.58138454,3.94423568 L5.35808986,3.23550392 L5.18287028,2.71533684 C5.89019633,2.543407 6.57071344,2.2660867 7.22159367,1.95910823 C7.2376564,1.95155689 7.24591401,1.93328045 7.24003188,1.91642673 C7.23392351,1.89815029 7.21322294,1.88808184 7.19410602,1.89410102 Z"></path>
                                </g>
                                <g id="Atom/logo/Spark" transform="translate(10.000000, 0.000000)"></g>
                            </g>
                        </g>
                    </g>
                </g>
            </g>
        </g>
    </g>
</svg>