<?xml version="1.0" encoding="UTF-8"?>
<svg width="70px" height="55px" viewBox="0 0 70 55" version="1.1" xmlns="http://www.w3.org/2000/svg" xmlns:xlink="http://www.w3.org/1999/xlink">
    <title>06955F3B-D0BA-4BF0-B8A6-DB362B0C9E55</title>
    <defs>
        <filter x="-27.8%" y="-44.4%" width="155.6%" height="188.9%" filterUnits="objectBoundingBox" id="filter-1">
            <feOffset dx="4" dy="5" in="SourceAlpha" result="shadowOffsetOuter1"></feOffset>
            <feGaussianBlur stdDeviation="2.5" in="shadowOffsetOuter1" result="shadowBlurOuter1"></feGaussianBlur>
            <feColorMatrix values="0 0 0 0 0   0 0 0 0 0   0 0 0 0 0  0 0 0 0.03 0" type="matrix" in="shadowBlurOuter1" result="shadowMatrixOuter1"></feColorMatrix>
            <feMerge>
                <feMergeNode in="shadowMatrixOuter1"></feMergeNode>
                <feMergeNode in="SourceGraphic"></feMergeNode>
            </feMerge>
        </filter>
    </defs>
    <g id="Dashboard-(mobile)-options" stroke="none" stroke-width="1" fill="none" fill-rule="evenodd">
        <g id="M&amp;S-Copy" transform="translate(-43.000000, -664.000000)" fill="#09C980">
            <g id="Group-5" transform="translate(0.000000, 588.000000)">
                <g id="Group-2" transform="translate(16.000000, 60.000000)">
                    <g id="Card_NEW" transform="translate(69.875000, 41.467033) rotate(-360.000000) translate(-69.875000, -41.467033) translate(16.000000, 9.571429)">
                        <g id="Sparks-Card" transform="translate(0.500000, 6.428571)" filter="url(#filter-1)">
                            <g id="Group-26">
                                <path d="M62.7226601,46.9256476 L62.7323871,46.9580661 L62.742114,46.9810728 C63.2079255,48.0519285 63.4932486,49.507623 62.9150371,49.8234417 C62.6448447,50.0325932 62.0439371,50.0827896 61.4614024,50.0200442 C60.8669794,49.9614817 60.2466178,49.8171672 59.6349024,49.6435714 C57.1729101,48.9136327 54.7844101,47.7517961 52.4553524,46.5449919 C47.8015601,44.0832787 43.3379832,41.2534589 38.9878871,38.2835075 C37.5839678,37.3193191 36.1984217,36.3310782 34.8204409,35.331334 C35.6310178,33.977078 36.3864755,32.5956323 37.0749255,31.1901342 C38.6733832,27.9963908 39.981114,24.6938885 41.0921447,21.3307323 C44.0858755,21.5315178 47.0914947,21.5921717 50.0960332,21.4300793 C51.7096217,21.353739 53.3091601,21.1958296 54.8957294,20.9793578 L62.7226601,46.9256476 Z M20.6277794,23.4902216 C19.7383063,22.5553144 18.8801755,21.5785768 18.2025332,20.5390939 C17.8793832,20.0287642 17.5767678,19.4588264 17.5411024,18.9976473 C17.5248909,18.7644434 17.5756871,18.6515015 17.6848447,18.5521546 C17.8091332,18.4507161 18.0533871,18.3660097 18.3311447,18.3325455 C19.4800024,18.1997343 20.8158332,18.5542461 22.1311294,18.7571231 L26.0835024,19.4337282 C28.7194986,19.8708548 31.3663024,20.2818375 34.0217524,20.6258917 C34.9306794,20.7440623 35.8428486,20.8486381 36.7560986,20.9479851 C35.9509255,23.9221195 34.9944447,26.8471032 33.8715255,29.7114331 C33.3797755,30.9694794 32.8285832,32.2066105 32.2471294,33.4322384 C30.2563524,31.9294848 28.2979986,30.3869925 26.3904409,28.7911665 C24.385614,27.1022681 22.4250986,25.360036 20.6277794,23.4902216 Z M46.3338755,0.671792487 C46.5046371,0.152050999 46.7315986,-0.441939273 46.9877409,-0.706515926 C47.0244871,-0.722202289 47.0363755,-0.734751379 47.0428601,-0.743117439 C47.0515063,-0.734751379 47.0687986,-0.722202289 47.1109486,-0.705470169 C47.2492871,-0.607168962 47.4211294,-0.390697155 47.5659524,-0.170042318 C48.7137294,1.74578546 49.4518947,4.06213837 50.2419371,6.26032068 C51.5334563,10.0407341 52.7168986,13.8682066 53.8916947,17.6967249 C52.5547832,17.7542416 51.2189524,17.7646992 49.8852832,17.7155486 C47.3768178,17.6799928 44.8694332,17.4802531 42.3577255,17.1675716 C43.5876409,12.8329067 44.5668178,8.43340481 45.4714217,4.06004686 C45.7297255,2.91389661 45.9869486,1.76147182 46.3338755,0.671792487 Z M80.4851024,11.9178689 L80.4429524,11.9325095 C73.7519101,14.0815412 67.0403332,16.0548856 60.353614,17.0567213 C58.9269986,12.8653252 57.501464,8.67915783 55.9030063,4.41665017 C55.4631332,3.27049993 55.0308255,2.10657181 54.4936832,0.921728534 C54.2267332,0.322509475 53.9500563,-0.281938373 53.6269063,-0.925079248 C53.2897063,-1.58076921 52.9611524,-2.23436766 52.3289024,-3.15045125 C51.9495524,-3.6294082 51.7009755,-4.14705817 50.4418794,-5.096606 C50.1695255,-5.30052872 49.6323832,-5.6111187 49.0757871,-5.81817869 C48.3949024,-6.06184019 47.6178294,-6.23229867 46.6678332,-6.1674617 C44.7905371,-6.03778777 43.5238755,-5.03490631 42.9997024,-4.49320391 C41.9146101,-3.31463518 41.8032909,-2.76142946 41.5330986,-2.2186813 C41.3234294,-1.7114889 41.2013024,-1.30678074 41.0856601,-0.913575915 C40.6738871,0.580811582 40.4793486,1.77297516 40.2610332,2.99232843 C39.4861217,7.68464242 38.7706524,12.0799613 37.8411909,16.4920123 C36.7906832,16.3131877 35.7401755,16.1228599 34.6864255,15.9178914 C32.1336486,15.4577581 29.570064,14.9338336 26.9945909,14.3764448 L23.1243563,13.5210151 L21.0687332,13.0713394 C20.1479178,12.9176131 19.2195371,12.7210106 17.5692024,12.8726455 C16.7532217,12.9970906 15.5362755,13.1183985 13.9518678,14.32834 C13.1629063,14.9631148 12.4560832,15.9252117 12.1134794,16.9061322 C11.7751986,17.8379022 11.7200794,18.7477112 11.7622294,19.3542506 C11.8573371,20.659356 12.1642755,21.3798829 12.4106909,22.0031544 C12.6700755,22.6117853 12.9327024,23.0907422 13.1856024,23.5215943 C14.2155755,25.174937 15.2033986,26.2970348 16.2031101,27.4212241 C18.1960486,29.6089489 20.2203294,31.5028157 22.2845986,33.3443947 C24.5390832,35.3261052 26.8216678,37.2346127 29.1507255,39.0761917 C26.1397024,43.8302054 22.3116178,48.1439552 17.5281332,51.6765241 L17.4957101,51.7005765 C17.3595332,51.8009692 17.3195447,51.9860683 17.4060063,52.1345659 C17.5000332,52.2956125 17.7140255,52.3510377 17.8793832,52.2579652 C23.1265178,49.3444848 27.5673986,45.3047235 31.185814,40.653194 C32.4794947,41.6372519 33.7839832,42.6056233 35.1176524,43.5405306 C39.5985217,46.6715286 44.1669332,49.6519375 49.1708947,52.3688155 C51.7323178,53.7136597 54.2234909,55.0239939 57.6430447,56.0896208 C58.5335986,56.3437399 59.4749486,56.6030877 60.7848409,56.7233499 C61.449514,56.7766835 62.194164,56.8143308 63.191714,56.6951144 C64.161164,56.563349 65.5369832,56.2726284 67.0197986,55.2352369 C68.5231486,54.2260809 69.6179678,52.3824104 69.9043717,51.0616186 C70.2437332,49.7084084 70.1799678,48.7086642 70.0945871,47.9348037 C69.907614,46.5512665 69.5823024,45.6341371 69.2591524,44.8100802 L65.0765755,31.5080445 L62.9431371,24.7357188 L61.2690255,19.7652333 C68.0270755,18.1223482 74.5289832,15.4723987 80.7477294,12.5390488 C80.9011986,12.4668916 80.9800947,12.2922501 80.9238947,12.1312034 C80.8655332,11.9565619 80.6677524,11.8603522 80.4851024,11.9178689 Z" id="Atom/logo/Spark"></path>
                            </g>
                        </g>
                    </g>
                </g>
            </g>
        </g>
    </g>
</svg>